<svg xmlns="http://www.w3.org/2000/svg" xmlns:xlink="http://www.w3.org/1999/xlink" version="1.2" width="150.00mm" height="297.00mm" viewBox="0 0 85.3583 169.0094">
<style text="style/css">
<![CDATA[
tspan { white-space: pre; }
]]>
</style>
<!-- Page: 1/1 -->
<text transform="translate(5.6906, 2.8453)" font-family="serif" font-size="2.2001" text-anchor="start" fill="currentColor">
<tspan/>
</text>
<line transform="translate(5.6906, 10.6099)" stroke-linejoin="round" stroke-linecap="round" stroke-width="0.1000" stroke="currentColor" x1="0.0500" y1="-0.0000" x2="14.1764" y2="-0.0000"/>
<rect transform="translate(12.2795, 10.6099)" x="-0.0650" y="-4.8100" width="0.1300" height="4.6502" ry="0.0400" fill="currentColor"/>
<a style="color:inherit;" xlink:href="textedit:///Users/jyang/Documents/GitHub/new_notation_workbook/public/notation/ly_tuplet_example.ly:31:24:25">
<path transform="translate(11.1838, 10.6099) scale(0.0036, -0.0036)" d="M215 137c57 0 111 -29 111 -92c0 -71 -54 -120 -101 -148c-35 -21 -74 -34 -114 -34c-57 0 -111 29 -111 92c0 71 54 120 101 148c35 21 74 34 114 34z" fill="currentColor"/>
</a>
<rect transform="translate(10.5328, 10.6099)" x="-0.0650" y="-4.8100" width="0.1300" height="4.6502" ry="0.0400" fill="currentColor"/>
<a style="color:inherit;" xlink:href="textedit:///Users/jyang/Documents/GitHub/new_notation_workbook/public/notation/ly_tuplet_example.ly:31:22:23">
<path transform="translate(9.4372, 10.6099) scale(0.0036, -0.0036)" d="M215 137c57 0 111 -29 111 -92c0 -71 -54 -120 -101 -148c-35 -21 -74 -34 -114 -34c-57 0 -111 29 -111 92c0 71 54 120 101 148c35 21 74 34 114 34z" fill="currentColor"/>
</a>
<a style="color:inherit;" xlink:href="textedit:///Users/jyang/Documents/GitHub/new_notation_workbook/public/notation/ly_tuplet_example.ly:31:4:5">
<line transform="translate(8.7212, 4.4599)" stroke-linejoin="round" stroke-linecap="round" stroke-width="0.1600" stroke="currentColor" x1="11.3957" y1="-0.0000" x2="11.3957" y2="0.7000"/>
<line transform="translate(8.7212, 4.4599)" stroke-linejoin="round" stroke-linecap="round" stroke-width="0.1600" stroke="currentColor" x1="-0.2000" y1="-0.0000" x2="-0.2000" y2="0.7000"/>
<line transform="translate(8.7212, 4.4599)" stroke-linejoin="round" stroke-linecap="round" stroke-width="0.1600" stroke="currentColor" x1="11.3957" y1="-0.0000" x2="7.3758" y2="-0.0000"/>
<line transform="translate(8.7212, 4.4599)" stroke-linejoin="round" stroke-linecap="round" stroke-width="0.1600" stroke="currentColor" x1="-0.2000" y1="-0.0000" x2="4.0199" y2="-0.0000"/>
</a>
<a style="color:inherit;" xlink:href="textedit:///Users/jyang/Documents/GitHub/new_notation_workbook/public/notation/ly_tuplet_example.ly:31:28:29">
<path transform="translate(14.6771, 10.6099) scale(0.0036, -0.0036)" d="M215 137c57 0 111 -29 111 -92c0 -71 -54 -120 -101 -148c-35 -21 -74 -34 -114 -34c-57 0 -111 29 -111 92c0 71 54 120 101 148c35 21 74 34 114 34z" fill="currentColor"/>
</a>
<a style="color:inherit;" xlink:href="textedit:///Users/jyang/Documents/GitHub/new_notation_workbook/public/notation/ly_tuplet_example.ly:31:21:22">
<polygon transform="translate(8.7212, 5.7999)" stroke-linejoin="round" stroke-linecap="round" stroke-width="0.0800" fill="currentColor" stroke="currentColor" points="10.5698 -0.2000 10.5698 0.2000 0.0400 0.2000 0.0400 -0.2000"/>
<polygon transform="translate(8.7212, 6.6099)" stroke-linejoin="round" stroke-linecap="round" stroke-width="0.0800" fill="currentColor" stroke="currentColor" points="10.5698 -0.2000 10.5698 0.2000 0.0400 0.2000 0.0400 -0.2000"/>
</a>
<rect transform="translate(17.5193, 10.6099)" x="-0.0650" y="-4.8100" width="0.1300" height="4.6502" ry="0.0400" fill="currentColor"/>
<a style="color:inherit;" xlink:href="textedit:///Users/jyang/Documents/GitHub/new_notation_workbook/public/notation/ly_tuplet_example.ly:31:30:31">
<path transform="translate(16.4237, 10.6099) scale(0.0036, -0.0036)" d="M215 137c57 0 111 -29 111 -92c0 -71 -54 -120 -101 -148c-35 -21 -74 -34 -114 -34c-57 0 -111 29 -111 92c0 71 54 120 101 148c35 21 74 34 114 34z" fill="currentColor"/>
</a>
<rect transform="translate(15.7727, 10.6099)" x="-0.0650" y="-4.8100" width="0.1300" height="4.6502" ry="0.0400" fill="currentColor"/>
<rect transform="translate(14.0261, 10.6099)" x="-0.0650" y="-4.8100" width="0.1300" height="4.6502" ry="0.0400" fill="currentColor"/>
<a style="color:inherit;" xlink:href="textedit:///Users/jyang/Documents/GitHub/new_notation_workbook/public/notation/ly_tuplet_example.ly:31:26:27">
<path transform="translate(12.9304, 10.6099) scale(0.0036, -0.0036)" d="M215 137c57 0 111 -29 111 -92c0 -71 -54 -120 -101 -148c-35 -21 -74 -34 -114 -34c-57 0 -111 29 -111 92c0 71 54 120 101 148c35 21 74 34 114 34z" fill="currentColor"/>
</a>
<a style="color:inherit;" xlink:href="textedit:///Users/jyang/Documents/GitHub/new_notation_workbook/public/notation/ly_tuplet_example.ly:31:4:5">
<text transform="translate(13.1411, 5.0061)" font-family="serif" font-style="italic" font-size="1.7461" text-anchor="start" fill="currentColor">
<tspan>7:4</tspan>
</text>
</a>
<a style="color:inherit;" xlink:href="textedit:///Users/jyang/Documents/GitHub/new_notation_workbook/public/notation/ly_tuplet_example.ly:31:17:18">
<path transform="translate(7.6906, 10.6099) scale(0.0036, -0.0036)" d="M215 137c57 0 111 -29 111 -92c0 -71 -54 -120 -101 -148c-35 -21 -74 -34 -114 -34c-57 0 -111 29 -111 92c0 71 54 120 101 148c35 21 74 34 114 34z" fill="currentColor"/>
</a>
<rect transform="translate(8.7862, 10.6099)" x="-0.0650" y="-4.8100" width="0.1300" height="4.6502" ry="0.0400" fill="currentColor"/>
<a style="color:inherit;" xlink:href="textedit:///Users/jyang/Documents/GitHub/new_notation_workbook/public/notation/ly_tuplet_example.ly:31:32:33">
<path transform="translate(18.1703, 10.6099) scale(0.0036, -0.0036)" d="M215 137c57 0 111 -29 111 -92c0 -71 -54 -120 -101 -148c-35 -21 -74 -34 -114 -34c-57 0 -111 29 -111 92c0 71 54 120 101 148c35 21 74 34 114 34z" fill="currentColor"/>
</a>
<rect transform="translate(19.2660, 10.6099)" x="-0.0650" y="-4.8100" width="0.1300" height="4.6502" ry="0.0400" fill="currentColor"/>
<a transform="translate(17.4814, 165.1170)" xlink:href="http://lilypond.org/">
<rect x="0.0000" y="-0.4780" width="50.3955" height="2.0145" fill="none" stroke="none" stroke-width="0.0"/>
</a>
<text transform="translate(17.4814, 165.1170)" font-family="serif" font-size="2.2001" text-anchor="start" fill="currentColor">
<tspan>Music engraving by LilyPond 2.20.0—www.lilypond.org</tspan>
</text>
</svg>
