<?xml version="1.0" encoding="UTF-8" standalone="no"?>
<svg
   xmlns:dc="http://purl.org/dc/elements/1.1/"
   xmlns:cc="http://creativecommons.org/ns#"
   xmlns:rdf="http://www.w3.org/1999/02/22-rdf-syntax-ns#"
   xmlns:svg="http://www.w3.org/2000/svg"
   xmlns="http://www.w3.org/2000/svg"
   xmlns:xlink="http://www.w3.org/1999/xlink"
   id="svg384"
   viewBox="0 0 14.795439 7.3977178"
   height="13mm"
   width="26mm"
   version="1.2">
  <metadata
     id="metadata390">
    <rdf:RDF>
      <cc:Work
         rdf:about="">
        <dc:format>image/svg+xml</dc:format>
        <dc:type
           rdf:resource="http://purl.org/dc/dcmitype/StillImage" />
        <dc:title></dc:title>
      </cc:Work>
    </rdf:RDF>
  </metadata>
  <defs
     id="defs388" />
  <style
     id="style304"
     text="style/css"><![CDATA[
tspan { white-space: pre; }
]]></style>
  <!-- Page: 1/1 -->
  <text
     y="-0.86008149"
     x="0.00071212446"
     style="font-size:2.20009995px;font-family:serif;text-anchor:start;fill:currentColor"
     id="text308"
     font-size="2.2001">
    <tspan
       style="white-space:pre"
       id="tspan306" />
  </text>
  <line
     style="stroke:currentColor;stroke-width:0.1;stroke-linecap:round;stroke-linejoin:round"
     id="line310"
     y2="6.9045186"
     x2="14.177113"
     y1="6.9045186"
     x1="0.050712124" />
  <rect
     style="fill:currentColor"
     id="rect312"
     ry="0.039999999"
     height="4.6501999"
     width="0.13"
     y="2.0945184"
     x="6.5246119" />
  <a
     transform="translate(-5.6898879,-3.7053815)"
     id="a316"
     xlink:href="textedit:///Users/jyang/Documents/GitHub/new_notation_workbook/public/notation/pcm002_7_4.ly:31:24:25"
     style="color:inherit">
    <path
       style="fill:currentColor"
       id="path314"
       d="m 215,137 c 57,0 111,-29 111,-92 0,-71 -54,-120 -101,-148 -35,-21 -74,-34 -114,-34 -57,0 -111,29 -111,92 0,71 54,120 101,148 35,21 74,34 114,34 z"
       transform="matrix(0.0036,0,0,-0.0036,11.1838,10.6099)" />
  </a>
  <rect
     style="fill:currentColor"
     id="rect318"
     ry="0.039999999"
     height="4.6501999"
     width="0.13"
     y="2.0945184"
     x="4.7779121" />
  <a
     transform="translate(-5.6898879,-3.7053815)"
     id="a322"
     xlink:href="textedit:///Users/jyang/Documents/GitHub/new_notation_workbook/public/notation/pcm002_7_4.ly:31:22:23"
     style="color:inherit">
    <path
       style="fill:currentColor"
       id="path320"
       d="m 215,137 c 57,0 111,-29 111,-92 0,-71 -54,-120 -101,-148 -35,-21 -74,-34 -114,-34 -57,0 -111,29 -111,92 0,71 54,120 101,148 35,21 74,34 114,34 z"
       transform="matrix(0.0036,0,0,-0.0036,9.4372,10.6099)" />
  </a>
  <a
     transform="translate(-5.6898879,-3.7053815)"
     id="a332"
     xlink:href="textedit:///Users/jyang/Documents/GitHub/new_notation_workbook/public/notation/pcm002_7_4.ly:31:4:5"
     style="color:inherit">
    <line
       style="stroke:currentColor;stroke-width:0.16;stroke-linecap:round;stroke-linejoin:round"
       id="line324"
       y2="0.69999999"
       x2="11.3957"
       y1="0"
       x1="11.3957"
       transform="translate(8.7212,4.4599)" />
    <line
       style="stroke:currentColor;stroke-width:0.16;stroke-linecap:round;stroke-linejoin:round"
       id="line326"
       y2="0.69999999"
       x2="-0.2"
       y1="0"
       x1="-0.2"
       transform="translate(8.7212,4.4599)" />
    <line
       style="stroke:currentColor;stroke-width:0.16;stroke-linecap:round;stroke-linejoin:round"
       id="line328"
       y2="0"
       x2="7.3758001"
       y1="0"
       x1="11.3957"
       transform="translate(8.7212,4.4599)" />
    <line
       style="stroke:currentColor;stroke-width:0.16;stroke-linecap:round;stroke-linejoin:round"
       id="line330"
       y2="0"
       x2="4.0198998"
       y1="0"
       x1="-0.2"
       transform="translate(8.7212,4.4599)" />
  </a>
  <a
     transform="translate(-5.6898879,-3.7053815)"
     id="a336"
     xlink:href="textedit:///Users/jyang/Documents/GitHub/new_notation_workbook/public/notation/pcm002_7_4.ly:31:28:29"
     style="color:inherit">
    <path
       style="fill:currentColor"
       id="path334"
       d="m 215,137 c 57,0 111,-29 111,-92 0,-71 -54,-120 -101,-148 -35,-21 -74,-34 -114,-34 -57,0 -111,29 -111,92 0,71 54,120 101,148 35,21 74,34 114,34 z"
       transform="matrix(0.0036,0,0,-0.0036,14.6771,10.6099)" />
  </a>
  <a
     transform="translate(-5.6898879,-3.7053815)"
     id="a342"
     xlink:href="textedit:///Users/jyang/Documents/GitHub/new_notation_workbook/public/notation/pcm002_7_4.ly:31:21:22"
     style="color:inherit">
    <polygon
       style="fill:currentColor;stroke:currentColor;stroke-width:0.08;stroke-linecap:round;stroke-linejoin:round"
       id="polygon338"
       points="0.04,0.2 0.04,-0.2 10.5698,-0.2 10.5698,0.2 "
       transform="translate(8.7212,5.7999)" />
    <polygon
       style="fill:currentColor;stroke:currentColor;stroke-width:0.08;stroke-linecap:round;stroke-linejoin:round"
       id="polygon340"
       points="0.04,0.2 0.04,-0.2 10.5698,-0.2 10.5698,0.2 "
       transform="translate(8.7212,6.6099)" />
  </a>
  <rect
     style="fill:currentColor"
     id="rect344"
     ry="0.039999999"
     height="4.6501999"
     width="0.13"
     y="2.0945184"
     x="11.764412" />
  <a
     transform="translate(-5.6898879,-3.7053815)"
     id="a348"
     xlink:href="textedit:///Users/jyang/Documents/GitHub/new_notation_workbook/public/notation/pcm002_7_4.ly:31:30:31"
     style="color:inherit">
    <path
       style="fill:currentColor"
       id="path346"
       d="m 215,137 c 57,0 111,-29 111,-92 0,-71 -54,-120 -101,-148 -35,-21 -74,-34 -114,-34 -57,0 -111,29 -111,92 0,71 54,120 101,148 35,21 74,34 114,34 z"
       transform="matrix(0.0036,0,0,-0.0036,16.4237,10.6099)" />
  </a>
  <rect
     style="fill:currentColor"
     id="rect350"
     ry="0.039999999"
     height="4.6501999"
     width="0.13"
     y="2.0945184"
     x="10.017812" />
  <rect
     style="fill:currentColor"
     id="rect352"
     ry="0.039999999"
     height="4.6501999"
     width="0.13"
     y="2.0945184"
     x="8.2712126" />
  <a
     transform="translate(-5.6898879,-3.7053815)"
     id="a356"
     xlink:href="textedit:///Users/jyang/Documents/GitHub/new_notation_workbook/public/notation/pcm002_7_4.ly:31:26:27"
     style="color:inherit">
    <path
       style="fill:currentColor"
       id="path354"
       d="m 215,137 c 57,0 111,-29 111,-92 0,-71 -54,-120 -101,-148 -35,-21 -74,-34 -114,-34 -57,0 -111,29 -111,92 0,71 54,120 101,148 35,21 74,34 114,34 z"
       transform="matrix(0.0036,0,0,-0.0036,12.9304,10.6099)" />
  </a>
  <a
     transform="translate(-5.6898879,-3.7053815)"
     id="a362"
     xlink:href="textedit:///Users/jyang/Documents/GitHub/new_notation_workbook/public/notation/pcm002_7_4.ly:31:4:5"
     style="color:inherit">
    <text
       style="font-style:italic;font-size:1.74609995px;font-family:serif;text-anchor:start;fill:currentColor"
       id="text360"
       font-size="1.7461"
       font-style="italic"
       transform="translate(13.1411,5.0061)">
      <tspan
         style="white-space:pre"
         id="tspan358">7:4</tspan>
    </text>
  </a>
  <a
     transform="translate(-5.6898879,-3.7053815)"
     id="a366"
     xlink:href="textedit:///Users/jyang/Documents/GitHub/new_notation_workbook/public/notation/pcm002_7_4.ly:31:17:18"
     style="color:inherit">
    <path
       style="fill:currentColor"
       id="path364"
       d="m 215,137 c 57,0 111,-29 111,-92 0,-71 -54,-120 -101,-148 -35,-21 -74,-34 -114,-34 -57,0 -111,29 -111,92 0,71 54,120 101,148 35,21 74,34 114,34 z"
       transform="matrix(0.0036,0,0,-0.0036,7.6906,10.6099)" />
  </a>
  <rect
     style="fill:currentColor"
     id="rect368"
     ry="0.039999999"
     height="4.6501999"
     width="0.13"
     y="2.0945184"
     x="3.0313122" />
  <a
     transform="translate(-5.6898879,-3.7053815)"
     id="a372"
     xlink:href="textedit:///Users/jyang/Documents/GitHub/new_notation_workbook/public/notation/pcm002_7_4.ly:31:32:33"
     style="color:inherit">
    <path
       style="fill:currentColor"
       id="path370"
       d="m 215,137 c 57,0 111,-29 111,-92 0,-71 -54,-120 -101,-148 -35,-21 -74,-34 -114,-34 -57,0 -111,29 -111,92 0,71 54,120 101,148 35,21 74,34 114,34 z"
       transform="matrix(0.0036,0,0,-0.0036,18.1703,10.6099)" />
  </a>
  <rect
     style="fill:currentColor"
     id="rect374"
     ry="0.039999999"
     height="4.6501999"
     width="0.13"
     y="2.0945184"
     x="13.511112" />
  <a
     id="a378"
     xlink:href="http://lilypond.org/"
     transform="translate(11.791512,161.41161)">
    <rect
       style="fill:none;stroke:none;stroke-width:0"
       id="rect376"
       height="2.0144999"
       width="50.3955"
       y="-0.47799999"
       x="0" />
  </a>
  <text
     y="161.41162"
     x="11.791512"
     style="font-size:2.20009995px;font-family:serif;text-anchor:start;fill:currentColor"
     id="text382"
     font-size="2.2001">
    <tspan
       style="white-space:pre"
       id="tspan380">Music engraving by LilyPond 2.20.0—www.lilypond.org</tspan>
  </text>
</svg>
